HIERARCHY
ROOT hip
{
  OFFSET 0 0 0
  CHANNELS 6 Xposition Yposition Zposition Zrotation Yrotation Xrotation
  JOINT abdomen
  {
    OFFSET 0 20.6881 -0.73152
    CHANNELS 3 Zrotation Xrotation Yrotation
    JOINT chest
    {
      OFFSET 0 11.7043 -0.48768
      CHANNELS 3 Zrotation Xrotation Yrotation
      JOINT neck
      {
        OFFSET 0 22.1894 -2.19456
        CHANNELS 3 Zrotation Xrotation Yrotation
        JOINT head
        {
          OFFSET -0.24384 7.07133 1.2192
          CHANNELS 3 Zrotation Xrotation Yrotation
          JOINT leftEye
          {
            OFFSET 4.14528 8.04674 8.04672
            CHANNELS 3 Zrotation Xrotation Yrotation
            End Site
            {
              OFFSET 1 0 0
            }
          }
          JOINT rightEye
          {
            OFFSET -3.6576 8.04674 8.04672
            CHANNELS 3 Zrotation Xrotation Yrotation
            End Site
            {
              OFFSET 1 0 0
            }
          }
        }
      }
      JOINT rCollar
      {
        OFFSET -2.68224 19.2634 -4.8768
        CHANNELS 3 Zrotation Xrotation Yrotation
        JOINT rShldr
        {
          OFFSET -8.77824 -1.95073 1.46304
          CHANNELS 3 Zrotation Xrotation Yrotation
          JOINT rForeArm
          {
            OFFSET -28.1742 -1.7115 0.48768
            CHANNELS 3 Zrotation Xrotation Yrotation
            JOINT rHand
            {
              OFFSET -22.5879 0.773209 7.07136
              CHANNELS 3 Zrotation Xrotation Yrotation
              JOINT rThumb1
              {
                OFFSET -1.2192 -0.487915 3.41376
                CHANNELS 3 Zrotation Xrotation Yrotation
                JOINT rThumb2
                {
                  OFFSET -3.37035 -0.52449 3.41376
                  CHANNELS 3 Zrotation Xrotation Yrotation
                  End Site
                  {
                    OFFSET -1.78271 -1.18214 1.43049
                  }
                }
              }
              JOINT rIndex1
              {
                OFFSET -7.75947 0.938293 5.60832
                CHANNELS 3 Zrotation Xrotation Yrotation
                JOINT rIndex2
                {
                  OFFSET -2.54057 -0.884171 1.56538
                  CHANNELS 3 Zrotation Xrotation Yrotation
                  End Site
                  {
                    OFFSET -1.62519 -0.234802 1.16502
                  }
                }
              }
              JOINT rMid1
              {
                OFFSET -8.24714 1.18213 3.41376
                CHANNELS 3 Zrotation Xrotation Yrotation
                JOINT rMid2
                {
                  OFFSET -3.10165 -0.590103 1.0647
                  CHANNELS 3 Zrotation Xrotation Yrotation
                  End Site
                  {
                    OFFSET -2.48547 -0.328903 0.83742
                  }
                }
              }
              JOINT rRing1
              {
                OFFSET -8.82822 0.546677 1.51678
                CHANNELS 3 Zrotation Xrotation Yrotation
                JOINT rRing2
                {
                  OFFSET -2.60934 -0.819778 -0.0198488
                  CHANNELS 3 Zrotation Xrotation Yrotation
                  End Site
                  {
                    OFFSET -2.33842 -0.294052 0.168128
                  }
                }
              }
              JOINT rPinky1
              {
                OFFSET -8.27202 -0.0477905 -0.4584
                CHANNELS 3 Zrotation Xrotation Yrotation
                JOINT rPinky2
                {
                  OFFSET -1.82734 -0.647385 -0.700984
                  CHANNELS 3 Zrotation Xrotation Yrotation
                  End Site
                  {
                    OFFSET -1.69225 -0.51767 -0.607171
                  }
                }
              }
            }
          }
        }
      }
      JOINT lCollar
      {
        OFFSET 2.68224 19.2634 -4.8768
        CHANNELS 3 Zrotation Xrotation Yrotation
        JOINT lShldr
        {
          OFFSET 8.77824 -1.95073 1.46304
          CHANNELS 3 Zrotation Xrotation Yrotation
          JOINT lForeArm
          {
            OFFSET 28.1742 -1.7115 0.48768
            CHANNELS 3 Zrotation Xrotation Yrotation
            JOINT lHand
            {
              OFFSET 22.5879 0.773209 7.07136
              CHANNELS 3 Zrotation Xrotation Yrotation
              JOINT lThumb1
              {
                OFFSET 1.2192 -0.487915 3.41376
                CHANNELS 3 Zrotation Xrotation Yrotation
                JOINT lThumb2
                {
                  OFFSET 3.37035 -0.52449 3.41376
                  CHANNELS 3 Zrotation Xrotation Yrotation
                  End Site
                  {
                    OFFSET 1.78271 -1.18214 1.43049
                  }
                }
              }
              JOINT lIndex1
              {
                OFFSET 7.75947 0.938293 5.60832
                CHANNELS 3 Zrotation Xrotation Yrotation
                JOINT lIndex2
                {
                  OFFSET 2.54057 -0.884171 1.56538
                  CHANNELS 3 Zrotation Xrotation Yrotation
                  End Site
                  {
                    OFFSET 1.62519 -0.234802 1.16502
                  }
                }
              }
              JOINT lMid1
              {
                OFFSET 8.24714 1.18213 3.41376
                CHANNELS 3 Zrotation Xrotation Yrotation
                JOINT lMid2
                {
                  OFFSET 3.10165 -0.590103 1.0647
                  CHANNELS 3 Zrotation Xrotation Yrotation
                  End Site
                  {
                    OFFSET 2.48547 -0.328903 0.83742
                  }
                }
              }
              JOINT lRing1
              {
                OFFSET 8.82822 0.546677 1.51678
                CHANNELS 3 Zrotation Xrotation Yrotation
                JOINT lRing2
                {
                  OFFSET 2.60934 -0.819778 -0.0198488
                  CHANNELS 3 Zrotation Xrotation Yrotation
                  End Site
                  {
                    OFFSET 2.33842 -0.294052 0.168128
                  }
                }
              }
              JOINT lPinky1
              {
                OFFSET 8.27202 -0.0477905 -0.4584
                CHANNELS 3 Zrotation Xrotation Yrotation
                JOINT lPinky2
                {
                  OFFSET 1.82734 -0.647385 -0.700984
                  CHANNELS 3 Zrotation Xrotation Yrotation
                  End Site
                  {
                    OFFSET 1.69225 -0.51767 -0.607171
                  }
                }
              }
            }
          }
        }
      }
    }
  }
  JOINT rButtock
  {
    OFFSET -8.77824 4.35084 1.2192
    CHANNELS 3 Zrotation Xrotation Yrotation
    JOINT rThigh
    {
      OFFSET 0 -1.70687 -2.19456
      CHANNELS 3 Zrotation Xrotation Yrotation
      JOINT rShin
      {
        OFFSET 0 -36.8199 0.73152
        CHANNELS 3 Zrotation Xrotation Yrotation
        JOINT rFoot
        {
          OFFSET 0.73152 -45.1104 -5.12064
          CHANNELS 3 Zrotation Xrotation Yrotation
          End Site
          {
            OFFSET -1.1221 -3.69964 12.103
          }
        }
      }
    }
  }
  JOINT lButtock
  {
    OFFSET 8.77824 4.35084 1.2192
    CHANNELS 3 Zrotation Xrotation Yrotation
    JOINT lThigh
    {
      OFFSET 0 -1.70687 -2.19456
      CHANNELS 3 Zrotation Xrotation Yrotation
      JOINT lShin
      {
        OFFSET 0 -36.8199 0.73152
        CHANNELS 3 Zrotation Xrotation Yrotation
        JOINT lFoot
        {
          OFFSET -0.73152 -45.1104 -5.12064
          CHANNELS 3 Zrotation Xrotation Yrotation
          End Site
          {
            OFFSET 1.1221 -3.69964 12.103
          }
        }
      }
    }
  }
}
MOTION
Frames:	7
Frame Time:	0.00833333
-80.9113 80.4648 -3.48323 -378.301 -96.2827 390.567 -9.17357 -22.9956 -10.883 7.11149 4.79147 -3.00062 -2.44538 32.7565 -11.0846 -5.95429 -49.1518 -25.7778 -0.0 0.0 0.0 -0.0 0.0 0.0 7.08757e-14 -1.95214e-13 -2.35265e-13 73.4839 -24.7921 -17.7396 -7.46302 -2.73593 13.1231 -1.61949 33.5425 5.35037 6.26309e-10 1.86715e-09 -2.5493e-09 1.00781e-09 3.23241e-09 -4.41456e-09 6.26313e-10 1.86715e-09 -2.54931e-09 7.73091 5.47488 0.417314 6.26311e-10 1.86714e-09 -2.54929e-09 2.90554 0.965183 0.102902 6.26316e-10 1.86715e-09 -2.5493e-09 10.2786 0.731801 0.0259123 6.26304e-10 1.86715e-09 -2.54929e-09 2.22167 -0.733487 -0.20892 7.07786e-14 -1.95214e-13 -2.35436e-13 -82.3794 5.55586 -14.5685 11.551 -5.13783 -20.7456 1.22887 29.7886 -4.61501 1.37011e-09 2.5642e-10 1.98179e-09 2.41059e-09 4.35542e-10 3.38498e-09 1.37011e-09 2.56417e-10 1.9818e-09 -7.73091 5.47488 -0.417314 1.37011e-09 2.56416e-10 1.98178e-09 -2.90554 0.965183 -0.102902 1.37011e-09 2.56416e-10 1.98178e-09 -10.2786 0.731801 -0.0259123 1.37012e-09 2.56419e-10 1.98178e-09 -2.22167 -0.733487 0.20892 -2.03217e-16 0.0 -3.88251e-19 5.18362 -38.3911 0.906706 -0.0738584 11.6476 -0.274609 0.0843536 12.0468 -5.97035 2.03217e-16 0.0 3.88251e-19 -6.56459 -2.67667 -4.81121 0.0874791 20.3756 -0.369085 0.498833 -16.4395 -0.642171
-81.2639 80.4708 -3.83649 -376.318 -95.8322 389.732 -9.02604 -23.6586 -10.5761 6.84819 5.17123 -2.9251 -2.20219 32.9978 -11.2196 -6.40619 -49.435 -26.2184 -0.0 0.0 0.0 -0.0 0.0 0.0 1.39318e-14 1.77411e-13 -8.95063e-14 73.2831 -25.4029 -18.1442 -7.45736 -2.73326 13.1126 -1.59249 33.3076 5.30238 1.26369e-09 1.74472e-09 -2.71788e-09 2.10371e-09 3.04142e-09 -4.72383e-09 1.26369e-09 1.74472e-09 -2.71789e-09 7.73091 5.47488 0.417314 1.26369e-09 1.74472e-09 -2.71787e-09 2.90554 0.965183 0.102902 1.2637e-09 1.74472e-09 -2.71789e-09 10.2786 0.731801 0.0259123 1.26369e-09 1.74472e-09 -2.71788e-09 2.22167 -0.733487 -0.20892 1.38776e-14 1.77412e-13 -8.96915e-14 -82.802 5.47433 -13.8847 11.5285 -5.12249 -20.7023 1.25625 30.0799 -4.66975 7.63983e-10 2.63512e-10 2.05445e-09 1.36816e-09 4.48999e-10 3.5241e-09 7.63984e-10 2.63511e-10 2.05446e-09 -7.73091 5.47488 -0.417314 7.63983e-10 2.63512e-10 2.05445e-09 -2.90554 0.965183 -0.102902 7.63983e-10 2.63512e-10 2.05445e-09 -10.2786 0.731801 -0.0259123 7.63991e-10 2.63517e-10 2.05444e-09 -2.22167 -0.733487 0.20892 -2.03217e-16 0.0 -3.88251e-19 5.3217 -39.0295 0.782259 -0.0830421 13.907 -0.200507 -0.0776626 11.4416 -5.43831 2.03217e-16 0.0 3.88251e-19 -6.65167 -1.50002 -4.87137 0.0731496 19.7971 -0.400902 0.542848 -15.8474 -0.648167
-82.9949 80.4395 -3.80889 -375.322 -96.8941 387.567 -8.73361 -24.3379 -10.2856 6.6383 5.51021 -2.86512 -1.99073 33.1144 -11.3241 -6.83093 -49.5684 -26.5779 -0.0 0.0 0.0 -0.0 0.0 0.0 -3.52729e-14 4.5301e-13 9.93923e-17 72.9375 -26.4666 -18.5498 -7.4183 -2.71407 13.0413 -1.63023 33.7022 5.37863 1.49871e-09 1.4263e-09 -2.4253e-09 2.51864e-09 2.49881e-09 -4.22622e-09 1.49872e-09 1.42631e-09 -2.42531e-09 7.73091 5.47488 0.417314 1.49872e-09 1.4263e-09 -2.42529e-09 2.90554 0.965183 0.102902 1.49872e-09 1.4263e-09 -2.4253e-09 10.2786 0.731801 0.0259123 1.49871e-09 1.4263e-09 -2.4253e-09 2.22167 -0.733487 -0.20892 -3.5298e-14 4.53013e-13 -9.93923e-17 -83.2995 5.17361 -13.1571 11.4572 -5.07521 -20.5642 1.29702 30.5176 -4.75201 5.7594e-10 2.18119e-10 1.92212e-09 1.04125e-09 3.71412e-10 3.29929e-09 5.75942e-10 2.18119e-10 1.92213e-09 -7.73091 5.47488 -0.417314 5.75941e-10 2.1812e-10 1.92212e-09 -2.90554 0.965183 -0.102902 5.7594e-10 2.18122e-10 1.92211e-09 -10.2786 0.731801 -0.0259123 5.75948e-10 2.18127e-10 1.9221e-09 -2.22167 -0.733487 0.20892 -2.03217e-16 0.0 -3.88251e-19 5.62745 -39.5154 0.710285 -0.0944694 15.7629 -0.140628 -0.218475 10.8045 -4.95047 2.03217e-16 0.0 3.88251e-19 -6.53594 -0.704255 -4.69402 0.0638615 19.6305 -0.427515 0.477852 -15.2883 -0.960255
-84.5351 80.5438 -3.4491 -385.537 -95.5743 396.885 -8.20717 -25.1791 -9.93047 6.50239 5.82857 -2.80621 -1.8222 33.0382 -11.384 -7.22074 -49.4647 -26.8161 -0.0 0.0 0.0 -0.0 0.0 0.0 -8.13013e-14 6.13113e-13 5.57723e-15 72.3204 -28.2935 -19.0313 -7.32189 -2.66655 12.8658 -1.78376 35.112 5.66393 1.04063e-09 6.83122e-10 -1.21347e-09 1.76479e-09 1.19934e-09 -2.12336e-09 1.04064e-09 6.83123e-10 -1.21348e-09 7.73091 5.47488 0.417314 1.04064e-09 6.83118e-10 -1.21347e-09 2.90554 0.965183 0.102902 1.04065e-09 6.83121e-10 -1.21348e-09 10.2786 0.731801 0.0259123 1.04063e-09 6.8312e-10 -1.21348e-09 2.22167 -0.733487 -0.20892 -8.13166e-14 6.13116e-13 5.36253e-15 -83.8809 4.60545 -12.383 11.3227 -4.98567 -20.3052 1.35665 31.1349 -4.86963 1.19201e-09 5.90661e-11 1.37802e-09 2.08998e-09 9.69227e-11 2.34377e-09 1.19201e-09 5.90661e-11 1.37803e-09 -7.73091 5.47488 -0.417314 1.19201e-09 5.90674e-11 1.37802e-09 -2.90554 0.965183 -0.102902 1.192e-09 5.90688e-11 1.37802e-09 -10.2786 0.731801 -0.0259123 1.19201e-09 5.90732e-11 1.37801e-09 -2.22167 -0.733487 0.20892 -2.03217e-16 0.0 -3.88251e-19 6.26145 -39.8984 0.796686 -0.104147 17.1161 -0.0992304 -0.344254 10.1133 -4.44992 2.03217e-16 0.0 3.88251e-19 -6.16136 -0.443066 -4.11612 0.061328 19.9724 -0.44877 0.295434 -14.8649 -1.62291
-85.0643 80.5875 -3.79693 -380.498 -94.6509 392.31 -7.48593 -26.1608 -9.50307 6.4033 6.15422 -2.74266 -1.68352 32.8456 -11.4127 -7.58249 -49.2186 -26.97 -0.0 0.0 0.0 -0.0 0.0 0.0 -1.28562e-13 7.15163e-13 -3.84369e-14 71.5 -30.5893 -19.5939 -7.19166 -2.60252 12.6294 -2.03812 37.1548 6.10229 1.39803e-10 -3.50303e-10 6.30796e-10 2.65821e-10 -6.1621e-10 1.0829e-09 1.39813e-10 -3.50301e-10 6.30784e-10 7.73091 5.47488 0.417314 1.39806e-10 -3.50306e-10 6.30793e-10 2.90554 0.965183 0.102902 1.39813e-10 -3.50303e-10 6.30787e-10 10.2786 0.731801 0.0259123 1.39801e-10 -3.50303e-10 6.30791e-10 2.22167 -0.733487 -0.20892 -1.28578e-13 7.15166e-13 -3.86698e-14 -84.5157 3.82266 -11.5587 11.1366 -4.86187 -19.9498 1.43567 31.9098 -5.02032 2.34217e-09 -1.79742e-10 5.46685e-10 4.05216e-09 -3.15698e-10 8.79086e-10 2.34217e-09 -1.79742e-10 5.46694e-10 -7.73091 5.47488 -0.417314 2.34217e-09 -1.79741e-10 5.46687e-10 -2.90554 0.965183 -0.102902 2.34216e-09 -1.7974e-10 5.46687e-10 -10.2786 0.731801 -0.0259123 2.34217e-09 -1.79738e-10 5.4668e-10 -2.22167 -0.733487 0.20892 -2.03217e-16 0.0 -3.88251e-19 7.13808 -40.2222 1.01982 -0.111552 18.1667 -0.069227 -0.453356 9.37162 -3.95012 2.03217e-16 0.0 3.88251e-19 -5.60987 -0.524862 -3.26134 0.0635267 20.6536 -0.467673 0.0477845 -14.5093 -2.50135
-85.496 80.4822 -4.6063 -364.696 -96.3523 377.638 -6.74188 -26.9712 -9.19207 6.32398 6.42076 -2.7113 -1.56206 32.6329 -11.4296 -7.91399 -48.9599 -27.0906 -0.0 0.0 0.0 -0.0 0.0 0.0 -1.63482e-13 7.57635e-13 -9.4976e-14 70.6619 -32.8715 -20.1306 -7.06319 -2.53949 12.3972 -2.34033 39.2453 6.58474 -7.37364e-10 -1.26012e-09 2.29193e-09 -1.19844e-09 -2.21664e-09 3.97262e-09 -7.37353e-10 -1.26012e-09 2.29191e-09 7.73091 5.47488 0.417314 -7.37364e-10 -1.26012e-09 2.29192e-09 2.90554 0.965183 0.102902 -7.37354e-10 -1.26012e-09 2.29192e-09 10.2786 0.731801 0.0259123 -7.37368e-10 -1.26012e-09 2.29192e-09 2.22167 -0.733487 -0.20892 -1.63503e-13 7.57638e-13 -9.52225e-14 -85.1689 2.88601 -10.6999 10.9202 -4.71963 -19.5389 1.52883 32.7836 -5.19346 3.36038e-09 -3.86091e-10 -2.00033e-10 5.78915e-09 -6.72343e-10 -4.35646e-10 3.36037e-09 -3.86091e-10 -2.00025e-10 -7.73091 5.47488 -0.417314 3.36038e-09 -3.86092e-10 -2.0003e-10 -2.90554 0.965183 -0.102902 3.36037e-09 -3.86091e-10 -2.00028e-10 -10.2786 0.731801 -0.0259123 3.36038e-09 -3.86091e-10 -2.00033e-10 -2.22167 -0.733487 0.20892 -2.03217e-16 0.0 -3.88251e-19 7.96632 -40.3424 1.16126 -0.11716 18.988 -0.0478316 -0.536165 8.62783 -3.5681 2.03217e-16 0.0 3.88251e-19 -4.94803 -0.74704 -2.40025 0.0701407 21.5832 -0.483069 -0.255694 -14.0355 -3.58908
-86.6451 80.4567 -4.92125 -358.975 -97.9524 372.311 -6.16437 -27.2977 -9.19132 6.24809 6.56178 -2.74903 -1.44522 32.4962 -11.4541 -8.21393 -48.8175 -27.2287 -0.0 0.0 0.0 -0.0 0.0 0.0 -1.72488e-13 7.39006e-13 -1.27073e-13 70.0349 -34.665 -20.4866 -6.97265 -2.49514 12.2342 -2.59439 40.802 6.96831 -1.12445e-09 -1.63248e-09 2.95433e-09 -1.84814e-09 -2.87076e-09 5.12584e-09 -1.12443e-09 -1.63247e-09 2.95432e-09 7.73091 5.47488 0.417314 -1.12445e-09 -1.63248e-09 2.95432e-09 2.90554 0.965183 0.102902 -1.12444e-09 -1.63248e-09 2.95432e-09 10.2786 0.731801 0.0259123 -1.12445e-09 -1.63247e-09 2.95433e-09 2.22167 -0.733487 -0.20892 -1.72514e-13 7.39008e-13 -1.27322e-13 -85.8091 1.85739 -9.82088 10.6958 -4.57514 -19.1131 1.62966 33.6972 -5.3776 3.58059e-09 -4.47768e-10 -4.90295e-10 6.16233e-09 -7.78905e-10 -9.41312e-10 3.58059e-09 -4.47769e-10 -4.90289e-10 -7.73091 5.47488 -0.417314 3.58059e-09 -4.4777e-10 -4.90292e-10 -2.90554 0.965183 -0.102902 3.58058e-09 -4.4777e-10 -4.90288e-10 -10.2786 0.731801 -0.0259123 3.58059e-09 -4.4777e-10 -4.90292e-10 -2.22167 -0.733487 0.20892 -2.03217e-16 0.0 -3.88251e-19 8.45205 -40.1157 1.00055 -0.122003 19.6531 -0.0321326 -0.590543 7.93123 -3.4196 2.03217e-16 0.0 3.88251e-19 -4.2554 -0.906275 -1.80352 0.0805675 22.6703 -0.4937 -0.590241 -13.2581 -4.87638
